<svg id="Capa_1" data-name="Capa 1" xmlns="http://www.w3.org/2000/svg" viewBox="0 0 44.06 58.71"><defs><style>.cls-1{fill:blue;stroke:blue;stroke-miterlimit:10;}</style></defs><path class="cls-1" d="M23.94,34.59c2,.35,4.27,2.73,5.08,3.84a12.15,12.15,0,0,1,1.87,6.17c.08,1.17.35,5-1.37,7.35a8.82,8.82,0,0,1-4.47,2.83A1.65,1.65,0,0,0,24.31,57c.91,1.16,4.57-1.17,6.07-3.1a11.07,11.07,0,0,0,1.69-3.34,16.34,16.34,0,0,0,.73-3.92,19.08,19.08,0,0,0-.68-6.42,14.48,14.48,0,0,0-2.91-5.84c-2-2.2-5-3.64-6-2.33a2.37,2.37,0,0,0-.3,1.92A1.26,1.26,0,0,0,23.94,34.59Z"/><path class="cls-1" d="M42,34.59c-1.84.35-3.87,2.73-4.6,3.84A13,13,0,0,0,35.7,44.6c-.09,1.17-.32,5,1.23,7.35a7.87,7.87,0,0,0,4,2.83c1.06.47.82,2,.67,2.18-.83,1.16-4.13-1.17-5.5-3.1a11.71,11.71,0,0,1-1.51-3.34A17.3,17.3,0,0,1,34,46.6a21.37,21.37,0,0,1,.62-6.42,15.22,15.22,0,0,1,2.63-5.84C39,32.14,41.75,30.7,42.65,32A2.57,2.57,0,0,1,43,33.92,1.17,1.17,0,0,1,42,34.59Z"/></svg>