<svg id="Capa_1" data-name="Capa 1" xmlns="http://www.w3.org/2000/svg" viewBox="0 0 44.06 58.71"><defs><style>.cls-1{fill:#2a4b9a;opacity:0.8;}.cls-1,.cls-2{isolation:isolate;}.cls-2{fill:blue;stroke:blue;stroke-miterlimit:10;stroke-width:2px;}</style></defs><path class="cls-1" d="M40.92,55.23c0,1.05-.6,1.9-1.34,1.9H4.48c-.74,0-1.34-.85-1.34-1.9s.6-1.9,1.34-1.9h35.1C40.32,53.33,40.92,54.19,40.92,55.23Z"/><path class="cls-2" d="M40.71,46.74c0,1-.6,1.9-1.34,1.9H4.27c-.74,0-1.34-.85-1.34-1.9s.6-1.9,1.34-1.9h35.1C40.11,44.85,40.71,45.74,40.71,46.74Z"/><path class="cls-2" d="M40.92,54.34c0,1-.6,1.9-1.34,1.9H4.48c-.74,0-1.34-.85-1.34-1.9s.6-1.9,1.34-1.9h35.1C40.32,52.45,40.92,53.34,40.92,54.34Z"/></svg>