<svg xmlns="http://www.w3.org/2000/svg" viewBox="0 0 44.23 55.99"><defs><style>.cls-1{fill:#fff;stroke:#1d1d1b;stroke-miterlimit:10;}</style></defs><g id="Capa_2" data-name="Capa 2"><g id="Capa_1-2" data-name="Capa 1"><ellipse class="cls-1" cx="22.2" cy="20.74" rx="20.24" ry="21.53" transform="translate(1.29 42.79) rotate(-89.58)"/><rect class="cls-1" x="5.24" y="8.24" width="33.92" height="25.01" transform="translate(44.25 41.65) rotate(-179.58)"/><rect class="cls-1" x="27.62" y="20.83" width="11.49" height="12.51" transform="translate(66.54 54.4) rotate(-179.58)"/><rect class="cls-1" x="16.78" y="8.24" width="10.94" height="12.51" transform="translate(44.39 29.14) rotate(-179.58)"/><rect class="cls-1" x="5.19" y="20.66" width="11.49" height="12.51" transform="translate(21.68 53.91) rotate(-179.58)"/><rect class="cls-1" x="5.29" y="8.16" width="11.49" height="12.51" transform="translate(21.96 28.9) rotate(-179.58)"/><rect class="cls-1" x="27.71" y="8.32" width="11.49" height="12.51" transform="translate(66.81 29.39) rotate(-179.58)"/><polygon class="cls-1" points="39.07 33.37 43.03 53.95 27.58 33.29 39.07 33.37"/><polygon class="cls-1" points="5.18 33.13 0.93 53.64 16.64 33.21 5.18 33.13"/></g></g></svg>