<svg xmlns="http://www.w3.org/2000/svg" viewBox="0 0 44.06 55.83"><defs><style>.cls-1{fill:#fff;stroke:#1d1d1b;stroke-miterlimit:10;}</style></defs><g id="Capa_2" data-name="Capa 2"><g id="Capa_1-2" data-name="Capa 1"><ellipse class="cls-1" cx="22.03" cy="20.74" rx="21.53" ry="20.24"/><rect class="cls-1" x="5.07" y="8.24" width="33.92" height="25.01" transform="translate(44.06 41.49) rotate(180)"/><rect class="cls-1" x="27.5" y="20.74" width="11.49" height="12.51" transform="translate(66.49 53.99) rotate(180)"/><rect class="cls-1" x="16.56" y="8.24" width="10.94" height="12.51" transform="translate(44.06 28.98) rotate(180)"/><rect class="cls-1" x="5.07" y="20.74" width="11.49" height="12.51" transform="translate(21.63 53.99) rotate(180)"/><rect class="cls-1" x="5.07" y="8.24" width="11.49" height="12.51" transform="translate(21.63 28.98) rotate(180)"/><rect class="cls-1" x="27.5" y="8.24" width="11.49" height="12.51" transform="translate(66.49 28.98) rotate(180)"/><polygon class="cls-1" points="38.99 33.25 43.1 53.79 27.5 33.25 38.99 33.25"/><polygon class="cls-1" points="5.11 33.25 1 53.79 16.56 33.25 5.11 33.25"/></g></g></svg>